<?xml version="1.0" encoding="UTF-8"?><svg id="Layer_2" xmlns="http://www.w3.org/2000/svg" width="32" height="32" viewBox="0 0 32 32"><g id="Layer_1-2"><rect width="32" height="32" fill="none" stroke-width="0"/><path d="M24.44,2.39h-13.06c-.88,0-1.64.5-2.03,1.23.32-.17.68-.28,1.07-.28h13.06c1.27,0,2.3,1.04,2.3,2.32v18.77c0,.39-.11.75-.28,1.07.73-.39,1.23-1.14,1.23-2.03V4.72c0-1.28-1.03-2.32-2.3-2.32Z" fill="#00d65b" stroke-width="0"/><path d="M22.54,4.3h-13.06c-.88,0-1.64.5-2.03,1.23.32-.17.68-.28,1.07-.28h13.06c1.27,0,2.3,1.04,2.3,2.32v18.77c0,.39-.11.75-.28,1.07.73-.39,1.23-1.14,1.23-2.03V6.63c0-1.28-1.03-2.32-2.3-2.32Z" fill="#606aea" stroke-width="0"/><path d="M22.92,8.54v18.77c0,1.27-1.03,2.3-2.3,2.3h-7.6c-.45,0-.82-.36-.82-.82,0-.73,0-2.19,0-5.18,0-.56-.46-1.02-1.02-1.02-2.94,0-4.38,0-5.11,0-.45,0-.82-.36-.82-.82v-13.25c0-1.27,1.03-2.3,2.3-2.3h13.06c1.27,0,2.3,1.04,2.3,2.32h0Z" fill="#00d65b" stroke-width="0"/><path d="M11.46,24.21v4.56c0,.71-.86,1.1-1.39.58-4.92-4.92-4.71-4.64-4.78-4.98-.1-.5.28-.97.8-.97h4.56c.45,0,.82.36.82.82h0Z" fill="#06bf51" stroke-width="0"/><g opacity=".1"><path d="M16.32,12.89c-1.13.74-1.58,2.14-1.18,3.39l-3.23,3.31s-.07.12-.07.18v1.52c0,.15.12.26.26.26h1.47c.07,0,.14-.03.19-.08l.37-.38c.06-.06.08-.14.07-.21l-.05-.41.55-.05c.13-.01.23-.11.24-.24l.05-.57.4.05c.07.01.15-.02.2-.07.06-.05.09-.12.09-.2v-.5h.47c.07,0,.14-.03.19-.08l.67-.68c1.02.34,2.12.09,2.89-.7,1.17-1.2,1.11-3.19-.16-4.31-.94-.83-2.36-.94-3.4-.25ZM19.23,15.25c-.31.31-.81.31-1.12,0s-.31-.81,0-1.12.81-.31,1.12,0,.31.81,0,1.12Z" fill="#1b1464" stroke-width="0"/></g><path d="M15.51,12.07c-1.13.74-1.58,2.14-1.18,3.39l-3.23,3.31s-.07.12-.07.18v1.52c0,.15.12.26.26.26h1.47c.07,0,.14-.03.19-.08l.37-.38c.06-.06.08-.14.07-.21l-.05-.41.55-.05c.13-.01.23-.11.24-.24l.05-.57.4.05c.07.01.15-.02.2-.07.06-.05.09-.12.09-.2v-.5h.47c.07,0,.14-.03.19-.08l.67-.68c1.02.34,2.12.09,2.89-.7,1.17-1.2,1.11-3.19-.16-4.31-.94-.83-2.36-.94-3.4-.25ZM18.42,14.44c-.31.31-.81.31-1.12,0s-.31-.81,0-1.12.81-.31,1.12,0,.31.81,0,1.12Z" fill="#fff" stroke-width="0"/></g></svg>